<?xml version="1.0" standalone="no"?><!DOCTYPE svg PUBLIC "-//W3C//DTD SVG 1.1//EN" "http://www.w3.org/Graphics/SVG/1.1/DTD/svg11.dtd"><svg t="1669439129714" class="icon" viewBox="0 0 1024 1024" version="1.1" xmlns="http://www.w3.org/2000/svg" p-id="1939" xmlns:xlink="http://www.w3.org/1999/xlink" width="200" height="200"><path d="M204.4928 650.24a15.36 15.36 0 0 1-15.36-15.36V258.2528a15.36 15.36 0 0 1 30.72 0V634.88a15.36 15.36 0 0 1-15.36 15.36zM819.5072 650.24a15.36 15.36 0 0 1-15.36-15.36V258.2528a15.36 15.36 0 0 1 30.72 0V634.88a15.36 15.36 0 0 1-15.36 15.36z" fill="#ffffff" p-id="1940"></path><path d="M819.5072 650.24H204.4928a15.36 15.36 0 1 1 0-30.72h615.0144a15.36 15.36 0 0 1 0 30.72zM819.5072 544.7168H204.4928a15.36 15.36 0 1 1 0-30.72h615.0144a15.36 15.36 0 0 1 0 30.72zM819.5072 273.6128H204.4928a15.36 15.36 0 0 1 0-30.72h615.0144a15.36 15.36 0 0 1 0 30.72zM645.12 781.1072H386.2528a15.36 15.36 0 0 1 0-30.72H645.12a15.36 15.36 0 1 1 0 30.72z" fill="#ffffff" p-id="1941"></path><path d="M508.672 781.1072a15.36 15.36 0 0 1-15.36-15.36V634.88a15.36 15.36 0 0 1 30.72 0v131.1232a15.36 15.36 0 0 1-15.36 15.104z" fill="#ffffff" p-id="1942"></path></svg>